# xmcd CD database file
#
# Track frame offsets:
#	150
#	13450
#	25975
#	37600
#	49450
#	62975
#	73250
#	88412
#	102225
#	113000
#	124025
#	134812
#	148975
#	160700
#	171425
#	188737
#
# Disc length: 2716 seconds
#
# Revision: 3
# Processed by: cddbd v1.5.2PL0 Copyright (c) Steve Scherf et al.
# Submitted via: CDex 1.51
#
DISCID=f50a9a10
DTITLE=Kenny Rogers - Castle Masters Collection
DYEAR=1990
DGENRE=Country
TTITLE0=Ruby Don't Take Your Love To Town
TTITLE1=Reuben James
TTITLE2=Me And Bobby McGee
TTITLE3=Elvira
TTITLE4=Shine On Ruby Mountain
TTITLE5=Where Does Rosie Go
TTITLE6=Tell It All Brother
TTITLE7=I'm Going To Sing You A Sad Song Suzie
TTITLE8=We All Got The Help Of Each Other
TTITLE9=Always Leaving Always Gone
TTITLE10=She Even Woke Me Up To Say Goodbye
TTITLE11=Sunshine
TTITLE12=Poem From My Little Lady
TTITLE13=Ticket To Nowher
TTITLE14=Something's Burning
TTITLE15=Conditions (Justed Dropped In)
EXTD=YEAR: 1990
EXTT0=
EXTT1=
EXTT2=
EXTT3=
EXTT4=
EXTT5=
EXTT6=
EXTT7=
EXTT8=
EXTT9=
EXTT10=
EXTT11=
EXTT12=
EXTT13=
EXTT14=
EXTT15=
PLAYORDER=
